<svg xmlns="http://www.w3.org/2000/svg" xmlns:xlink="http://www.w3.org/1999/xlink" viewBox="0,0,256,256" width="20px" height="20px" fill-rule="nonzero"><g fill="#ffffff" fill-rule="nonzero" stroke="none" stroke-width="1" stroke-linecap="butt" stroke-linejoin="miter" stroke-miterlimit="10" stroke-dasharray="" stroke-dashoffset="0" font-family="none" font-weight="none" font-size="none" text-anchor="none" style="mix-blend-mode: normal"><g transform="scale(5.12,5.12)"><path d="M34.80078,33.80078c-1.69922,-0.69922 -3.80078,-1.60156 -3.80078,-2.30078v-4.5c2.5,-1.89844 4,-4.89844 4,-8v-6c0,-5.5 -4.5,-10 -10,-10c-5.5,0 -10,4.5 -10,10v6c0,3.10156 1.5,6.19922 4,8v4.5c0,0.60156 -2.10156,1.5 -3.80078,2.30078c-4.09766,1.69922 -10.19922,4.30078 -10.19922,11.19922v1h40v-1c0,-6.89844 -6.10156,-9.5 -10.19922,-11.19922z"></path></g></g></svg>
